# xmcd
# Track frame offsets:
# 150
# 15602
# 31129
# 69606
# 84608
# 99835
# 115212
# 130589
# 144991
# 158793
# 176945
# 191647
# 207924
# 222176
# 235828
#
# Disc length: 3418 seconds
# Revision: 2
# Processed by: cddbd v1.5.1PL2 Copyright (c) Steve Scherf et al.
# Submitted via: VisiTrax 2.10.0.248 - For more info visit www.synapsa.com
#
DISCID=c90d580f
DTITLE=Various Artist - Country Rocks Greatest Hits Disc 1
DYEAR=1995
DGENRE=Country
TTITLE0=Billy Ray Cyrus - Achy Breaky Heart
TTITLE1=Juice Newton - Queen of Hearts
TTITLE2=Don Mclean - American Pie
TTITLE3=Alabama - Love in the First Degree
TTITLE4=Sheena Easton - Morning Train
TTITLE5=America - Venture Highway
TTITLE6=Nitty Gritty Dirt Band - Jambalaya
TTITLE7=Glen Campbell - Rhinestone Cowboy
TTITLE8=Willie Nelson - Once You'"re Past the Blues
TTITLE9=James Blundell and James Reyne - Way Out There
TTITLE10=Dr. Hook - Girls Can Get It
TTITLE11=Chralie Daniels Band - Devil Went Down to Georgia
TTITLE12=John Denver - Take Me Home Country Road
TTITLE13=Jim Croce - Bad Bad Leroy Brown
TTITLE14=Goanna - Solid Rock
EXTD=YEAR: 1995
EXTT0=
EXTT1=
EXTT2=
EXTT3=
EXTT4=
EXTT5=
EXTT6=
EXTT7=
EXTT8=
EXTT9=
EXTT10=
EXTT11=
EXTT12=
EXTT13=
EXTT14=
PLAYORDER=
